<?xml version="1.0" encoding="UTF-8"?>
<svg xmlns="http://www.w3.org/2000/svg" xmlns:xlink="http://www.w3.org/1999/xlink" width="792px" height="570px" viewBox="0 0 792 570" version="1.1">
    
    <title>figure-0</title>
    <desc>Created with Sketch.</desc>
    <g id="figure-0" stroke="none" stroke-width="1" fill="none" fill-rule="evenodd">
        <rect fill="#FFFFFF" x="0" y="0" width="792" height="570"/>
        <g id="line" transform="translate(121.000000, 90.000000)" stroke="#F7931E" stroke-width="2">
            <line x1="110" y1="60" x2="275" y2="0" id="Path-9"/>
            <line x1="220" y1="60" x2="275" y2="0" id="Path-10"/>
            <line x1="330" y1="60" x2="275" y2="0" id="Path-11"/>
            <line x1="440" y1="60" x2="275" y2="0" id="Path-12"/>
            <line x1="0" y1="170" x2="110" y2="110" id="Path-13"/>
            <line x1="110" y1="170" x2="110" y2="110" id="Path-14"/>
            <line x1="220" y1="170" x2="110" y2="110" id="Path-15"/>
            <line x1="220" y1="110" x2="0" y2="170" id="Path-16"/>
            <line x1="220" y1="110" x2="330" y2="170" id="Path-17"/>
            <line x1="220" y1="110" x2="440" y2="170" id="Path-18"/>
            <line x1="330" y1="110" x2="110" y2="170" id="Path-19"/>
            <line x1="330" y1="110" x2="330" y2="170" id="Path-20"/>
            <line x1="330" y1="110" x2="550" y2="170" id="Path-21"/>
            <line x1="440" y1="110" x2="440" y2="170" id="Path-22"/>
            <line x1="440" y1="110" x2="550" y2="170" id="Path-23"/>
            <line x1="440" y1="110" x2="220" y2="170" id="Path-24"/>
            <line x1="0" y1="220" x2="95" y2="280" id="Path-25"/>
            <line x1="0" y1="220" x2="215" y2="280" id="Path-26"/>
            <line x1="110.5" y1="219.5" x2="95" y2="280" id="Path-27"/>
            <line x1="351" y1="280" x2="110" y2="220" id="Path-28"/>
            <line x1="220" y1="220" x2="215" y2="280" id="Path-29"/>
            <line x1="220" y1="220" x2="351.5" y2="279.5" id="Path-30"/>
            <line x1="330" y1="220" x2="95" y2="280" id="Path-31"/>
            <line x1="330" y1="220" x2="455" y2="280" id="Path-32"/>
            <line x1="440" y1="220" x2="215" y2="280" id="Path-33"/>
            <line x1="440" y1="220" x2="455" y2="280" id="Path-34"/>
            <line x1="550" y1="220" x2="351" y2="280" id="Path-35"/>
            <line x1="550" y1="220" x2="455" y2="280" id="Path-36"/>
            <polyline id="Path-37" points="95 330 275 390 215 330"/>
            <polyline id="Path-38" points="351 330 275 390 455 330"/>
        </g>
        <rect id="Rectangle-Copy" fill="#ECEDF2" x="346" y="40" width="100" height="50" rx="3"/>
        <path d="M385.832,70 L385.832,64.368 C386.6,63.584 387.16,63.184 387.944,63.184 C388.968,63.184 389.416,63.792 389.416,65.248 L389.416,70 L390.744,70 L390.744,65.072 C390.744,63.088 390.008,62.032 388.36,62.032 C387.288,62.032 386.488,62.608 385.752,63.344 L385.704,63.344 L385.592,62.224 L384.504,62.224 L384.504,70 L385.832,70 Z M395.528,70.192 C396.6,70.192 397.368,69.632 398.088,68.784 L398.136,68.784 L398.248,70 L399.336,70 L399.336,62.224 L398.008,62.224 L398.008,67.728 C397.288,68.64 396.728,69.04 395.944,69.04 C394.92,69.04 394.472,68.416 394.472,66.976 L394.472,62.224 L393.144,62.224 L393.144,67.152 C393.144,69.136 393.88,70.192 395.528,70.192 Z M403.352,70.192 C403.688,70.192 403.928,70.144 404.12,70.048 L403.944,69.056 C403.816,69.088 403.752,69.088 403.672,69.088 C403.464,69.088 403.288,68.944 403.288,68.528 L403.288,58.608 L401.96,58.608 L401.96,68.432 C401.96,69.552 402.36,70.192 403.352,70.192 Z M407.432,70.192 C407.768,70.192 408.008,70.144 408.2,70.048 L408.024,69.056 C407.896,69.088 407.832,69.088 407.752,69.088 C407.544,69.088 407.368,68.944 407.368,68.528 L407.368,58.608 L406.04,58.608 L406.04,68.432 C406.04,69.552 406.44,70.192 407.432,70.192 Z" id="null" fill="#333333" fill-rule="nonzero"/>
        <rect id="Rectangle-Copy" fill="#ECEDF2" x="206" y="150" width="50" height="50" rx="3"/>
        <path d="M228.056,180 L229.064,176.816 L232.888,176.816 L233.88,180 L235.304,180 L231.768,169.504 L230.232,169.504 L226.696,180 L228.056,180 Z M232.552,175.728 L229.416,175.728 L229.912,174.144 C230.28,172.976 230.616,171.824 230.936,170.608 L231,170.608 C231.336,171.824 231.672,172.976 232.056,174.144 L232.552,175.728 Z" id="A" fill="#333333" fill-rule="nonzero"/>
        <rect id="Rectangle" fill="#73B0DE" x="91" y="260" width="60" height="50" rx="3"/>
        <path d="M113.352,290 L114.36,286.816 L118.184,286.816 L119.176,290 L120.6,290 L117.064,279.504 L115.528,279.504 L111.992,290 L113.352,290 Z M117.848,285.728 L114.712,285.728 L115.208,284.144 C115.576,282.976 115.912,281.824 116.232,280.608 L116.296,280.608 C116.632,281.824 116.968,282.976 117.352,284.144 L117.848,285.728 Z M125.448,290 C127.784,290 129.416,288.992 129.416,286.928 C129.416,285.488 128.536,284.656 127.288,284.416 L127.288,284.352 C128.264,284.032 128.824,283.104 128.824,282.064 C128.824,280.224 127.336,279.504 125.208,279.504 L122.088,279.504 L122.088,290 L125.448,290 Z M124.984,283.968 L123.432,283.968 L123.432,280.576 L125.032,280.576 C126.664,280.576 127.496,281.024 127.496,282.24 C127.496,283.312 126.76,283.968 124.984,283.968 Z M125.256,288.928 L123.432,288.928 L123.432,284.992 L125.256,284.992 C127.08,284.992 128.088,285.584 128.088,286.88 C128.088,288.288 127.048,288.928 125.256,288.928 Z" id="AB" fill="#FFFFFF" fill-rule="nonzero"/>
        <rect id="Rectangle" fill="#73B0DE" x="176" y="370" width="80" height="50" rx="3"/>
        <path d="M203.784,400 L204.792,396.816 L208.616,396.816 L209.608,400 L211.032,400 L207.496,389.504 L205.96,389.504 L202.424,400 L203.784,400 Z M208.28,395.728 L205.144,395.728 L205.64,394.144 C206.008,392.976 206.344,391.824 206.664,390.608 L206.728,390.608 C207.064,391.824 207.4,392.976 207.784,394.144 L208.28,395.728 Z M215.88,400 C218.216,400 219.848,398.992 219.848,396.928 C219.848,395.488 218.968,394.656 217.72,394.416 L217.72,394.352 C218.696,394.032 219.256,393.104 219.256,392.064 C219.256,390.224 217.768,389.504 215.64,389.504 L212.52,389.504 L212.52,400 L215.88,400 Z M215.416,393.968 L213.864,393.968 L213.864,390.576 L215.464,390.576 C217.096,390.576 217.928,391.024 217.928,392.24 C217.928,393.312 217.192,393.968 215.416,393.968 Z M215.688,398.928 L213.864,398.928 L213.864,394.992 L215.688,394.992 C217.512,394.992 218.52,395.584 218.52,396.88 C218.52,398.288 217.48,398.928 215.688,398.928 Z M225.896,400.192 C227.24,400.192 228.264,399.648 229.112,398.672 L228.376,397.872 C227.704,398.608 226.952,399.008 225.944,399.008 C223.96,399.008 222.712,397.36 222.712,394.72 C222.712,392.112 224.024,390.496 225.992,390.496 C226.888,390.496 227.576,390.864 228.136,391.44 L228.872,390.608 C228.248,389.92 227.256,389.312 225.976,389.312 C223.304,389.312 221.32,391.376 221.32,394.752 C221.32,398.176 223.272,400.192 225.896,400.192 Z" id="ABC" fill="#FFFFFF" fill-rule="nonzero"/>
        <rect id="Rectangle" fill="#73B0DE" x="296" y="370" width="80" height="50" rx="3"/>
        <path d="M323.424,400 L324.432,396.816 L328.256,396.816 L329.248,400 L330.672,400 L327.136,389.504 L325.6,389.504 L322.064,400 L323.424,400 Z M327.92,395.728 L324.784,395.728 L325.28,394.144 C325.648,392.976 325.984,391.824 326.304,390.608 L326.368,390.608 C326.704,391.824 327.04,392.976 327.424,394.144 L327.92,395.728 Z M335.52,400 C337.856,400 339.488,398.992 339.488,396.928 C339.488,395.488 338.608,394.656 337.36,394.416 L337.36,394.352 C338.336,394.032 338.896,393.104 338.896,392.064 C338.896,390.224 337.408,389.504 335.28,389.504 L332.16,389.504 L332.16,400 L335.52,400 Z M335.056,393.968 L333.504,393.968 L333.504,390.576 L335.104,390.576 C336.736,390.576 337.568,391.024 337.568,392.24 C337.568,393.312 336.832,393.968 335.056,393.968 Z M335.328,398.928 L333.504,398.928 L333.504,394.992 L335.328,394.992 C337.152,394.992 338.16,395.584 338.16,396.88 C338.16,398.288 337.12,398.928 335.328,398.928 Z M344.256,400 C347.424,400 349.152,398.048 349.152,394.704 C349.152,391.376 347.424,389.504 344.192,389.504 L341.568,389.504 L341.568,400 L344.256,400 Z M344.096,398.896 L342.912,398.896 L342.912,390.608 L344.096,390.608 C346.544,390.608 347.76,392.064 347.76,394.704 C347.76,397.36 346.544,398.896 344.096,398.896 Z" id="ABD" fill="#FFFFFF" fill-rule="nonzero"/>
        <rect id="Rectangle" fill="#73B0DE" x="346" y="480" width="100" height="50" rx="3"/>
        <path d="M378.856,510 L379.864,506.816 L383.688,506.816 L384.68,510 L386.104,510 L382.568,499.504 L381.032,499.504 L377.496,510 L378.856,510 Z M383.352,505.728 L380.216,505.728 L380.712,504.144 C381.08,502.976 381.416,501.824 381.736,500.608 L381.8,500.608 C382.136,501.824 382.472,502.976 382.856,504.144 L383.352,505.728 Z M390.952,510 C393.288,510 394.92,508.992 394.92,506.928 C394.92,505.488 394.04,504.656 392.792,504.416 L392.792,504.352 C393.768,504.032 394.328,503.104 394.328,502.064 C394.328,500.224 392.84,499.504 390.712,499.504 L387.592,499.504 L387.592,510 L390.952,510 Z M390.488,503.968 L388.936,503.968 L388.936,500.576 L390.536,500.576 C392.168,500.576 393,501.024 393,502.24 C393,503.312 392.264,503.968 390.488,503.968 Z M390.76,508.928 L388.936,508.928 L388.936,504.992 L390.76,504.992 C392.584,504.992 393.592,505.584 393.592,506.88 C393.592,508.288 392.552,508.928 390.76,508.928 Z M400.968,510.192 C402.312,510.192 403.336,509.648 404.184,508.672 L403.448,507.872 C402.776,508.608 402.024,509.008 401.016,509.008 C399.032,509.008 397.784,507.36 397.784,504.72 C397.784,502.112 399.096,500.496 401.064,500.496 C401.96,500.496 402.648,500.864 403.208,501.44 L403.944,500.608 C403.32,499.92 402.328,499.312 401.048,499.312 C398.376,499.312 396.392,501.376 396.392,504.752 C396.392,508.176 398.344,510.192 400.968,510.192 Z M408.824,510 C411.992,510 413.72,508.048 413.72,504.704 C413.72,501.376 411.992,499.504 408.76,499.504 L406.136,499.504 L406.136,510 L408.824,510 Z M408.664,508.896 L407.48,508.896 L407.48,500.608 L408.664,500.608 C411.112,500.608 412.328,502.064 412.328,504.704 C412.328,507.36 411.112,508.896 408.664,508.896 Z" id="ABCD" fill="#FFFFFF" fill-rule="nonzero"/>
        <rect id="Rectangle-Copy" fill="#ECEDF2" x="201" y="260" width="60" height="50" rx="3"/>
        <path d="M223.568,290 L224.576,286.816 L228.4,286.816 L229.392,290 L230.816,290 L227.28,279.504 L225.744,279.504 L222.208,290 L223.568,290 Z M228.064,285.728 L224.928,285.728 L225.424,284.144 C225.792,282.976 226.128,281.824 226.448,280.608 L226.512,280.608 C226.848,281.824 227.184,282.976 227.568,284.144 L228.064,285.728 Z M236.112,290.192 C237.456,290.192 238.48,289.648 239.328,288.672 L238.592,287.872 C237.92,288.608 237.168,289.008 236.16,289.008 C234.176,289.008 232.928,287.36 232.928,284.72 C232.928,282.112 234.24,280.496 236.208,280.496 C237.104,280.496 237.792,280.864 238.352,281.44 L239.088,280.608 C238.464,279.92 237.472,279.312 236.192,279.312 C233.52,279.312 231.536,281.376 231.536,284.752 C231.536,288.176 233.488,290.192 236.112,290.192 Z" id="AC" fill="#333333" fill-rule="nonzero"/>
        <rect id="Rectangle-Copy" fill="#ECEDF2" x="421" y="260" width="60" height="50" rx="3"/>
        <path d="M446.528,290 C448.864,290 450.496,288.992 450.496,286.928 C450.496,285.488 449.616,284.656 448.368,284.416 L448.368,284.352 C449.344,284.032 449.904,283.104 449.904,282.064 C449.904,280.224 448.416,279.504 446.288,279.504 L443.168,279.504 L443.168,290 L446.528,290 Z M446.064,283.968 L444.512,283.968 L444.512,280.576 L446.112,280.576 C447.744,280.576 448.576,281.024 448.576,282.24 C448.576,283.312 447.84,283.968 446.064,283.968 Z M446.336,288.928 L444.512,288.928 L444.512,284.992 L446.336,284.992 C448.16,284.992 449.168,285.584 449.168,286.88 C449.168,288.288 448.128,288.928 446.336,288.928 Z M456.544,290.192 C457.888,290.192 458.912,289.648 459.76,288.672 L459.024,287.872 C458.352,288.608 457.6,289.008 456.592,289.008 C454.608,289.008 453.36,287.36 453.36,284.72 C453.36,282.112 454.672,280.496 456.64,280.496 C457.536,280.496 458.224,280.864 458.784,281.44 L459.52,280.608 C458.896,279.92 457.904,279.312 456.624,279.312 C453.952,279.312 451.968,281.376 451.968,284.752 C451.968,288.176 453.92,290.192 456.544,290.192 Z" id="BC" fill="#333333" fill-rule="nonzero"/>
        <rect id="Rectangle-Copy" fill="#ECEDF2" x="531" y="260" width="60" height="50" rx="3"/>
        <path d="M556.168,290 C558.504,290 560.136,288.992 560.136,286.928 C560.136,285.488 559.256,284.656 558.008,284.416 L558.008,284.352 C558.984,284.032 559.544,283.104 559.544,282.064 C559.544,280.224 558.056,279.504 555.928,279.504 L552.808,279.504 L552.808,290 L556.168,290 Z M555.704,283.968 L554.152,283.968 L554.152,280.576 L555.752,280.576 C557.384,280.576 558.216,281.024 558.216,282.24 C558.216,283.312 557.48,283.968 555.704,283.968 Z M555.976,288.928 L554.152,288.928 L554.152,284.992 L555.976,284.992 C557.8,284.992 558.808,285.584 558.808,286.88 C558.808,288.288 557.768,288.928 555.976,288.928 Z M564.904,290 C568.072,290 569.8,288.048 569.8,284.704 C569.8,281.376 568.072,279.504 564.84,279.504 L562.216,279.504 L562.216,290 L564.904,290 Z M564.744,288.896 L563.56,288.896 L563.56,280.608 L564.744,280.608 C567.192,280.608 568.408,282.064 568.408,284.704 C568.408,287.36 567.192,288.896 564.744,288.896 Z" id="BD" fill="#333333" fill-rule="nonzero"/>
        <rect id="Rectangle-Copy" fill="#ECEDF2" x="641" y="260" width="60" height="50" rx="3"/>
        <path d="M666.912,290.192 C668.256,290.192 669.28,289.648 670.128,288.672 L669.392,287.872 C668.72,288.608 667.968,289.008 666.96,289.008 C664.976,289.008 663.728,287.36 663.728,284.72 C663.728,282.112 665.04,280.496 667.008,280.496 C667.904,280.496 668.592,280.864 669.152,281.44 L669.888,280.608 C669.264,279.92 668.272,279.312 666.992,279.312 C664.32,279.312 662.336,281.376 662.336,284.752 C662.336,288.176 664.288,290.192 666.912,290.192 Z M674.768,290 C677.936,290 679.664,288.048 679.664,284.704 C679.664,281.376 677.936,279.504 674.704,279.504 L672.08,279.504 L672.08,290 L674.768,290 Z M674.608,288.896 L673.424,288.896 L673.424,280.608 L674.608,280.608 C677.056,280.608 678.272,282.064 678.272,284.704 C678.272,287.36 677.056,288.896 674.608,288.896 Z" id="CD" fill="#333333" fill-rule="nonzero"/>
        <rect id="Rectangle-Copy" fill="#ECEDF2" x="311" y="260" width="60" height="50" rx="3"/>
        <path d="M333.128,290 L334.136,286.816 L337.96,286.816 L338.952,290 L340.376,290 L336.84,279.504 L335.304,279.504 L331.768,290 L333.128,290 Z M337.624,285.728 L334.488,285.728 L334.984,284.144 C335.352,282.976 335.688,281.824 336.008,280.608 L336.072,280.608 C336.408,281.824 336.744,282.976 337.128,284.144 L337.624,285.728 Z M344.552,290 C347.72,290 349.448,288.048 349.448,284.704 C349.448,281.376 347.72,279.504 344.488,279.504 L341.864,279.504 L341.864,290 L344.552,290 Z M344.392,288.896 L343.208,288.896 L343.208,280.608 L344.392,280.608 C346.84,280.608 348.056,282.064 348.056,284.704 C348.056,287.36 346.84,288.896 344.392,288.896 Z" id="AD" fill="#333333" fill-rule="nonzero"/>
        <rect id="Rectangle-Copy" fill="#ECEDF2" x="432" y="370" width="80" height="50" rx="3"/>
        <path d="M459.64,400 L460.648,396.816 L464.472,396.816 L465.464,400 L466.888,400 L463.352,389.504 L461.816,389.504 L458.28,400 L459.64,400 Z M464.136,395.728 L461,395.728 L461.496,394.144 C461.864,392.976 462.2,391.824 462.52,390.608 L462.584,390.608 C462.92,391.824 463.256,392.976 463.64,394.144 L464.136,395.728 Z M472.184,400.192 C473.528,400.192 474.552,399.648 475.4,398.672 L474.664,397.872 C473.992,398.608 473.24,399.008 472.232,399.008 C470.248,399.008 469,397.36 469,394.72 C469,392.112 470.312,390.496 472.28,390.496 C473.176,390.496 473.864,390.864 474.424,391.44 L475.16,390.608 C474.536,389.92 473.544,389.312 472.264,389.312 C469.592,389.312 467.608,391.376 467.608,394.752 C467.608,398.176 469.56,400.192 472.184,400.192 Z M480.04,400 C483.208,400 484.936,398.048 484.936,394.704 C484.936,391.376 483.208,389.504 479.976,389.504 L477.352,389.504 L477.352,400 L480.04,400 Z M479.88,398.896 L478.696,398.896 L478.696,390.608 L479.88,390.608 C482.328,390.608 483.544,392.064 483.544,394.704 C483.544,397.36 482.328,398.896 479.88,398.896 Z" id="ACD" fill="#333333" fill-rule="nonzero"/>
        <rect id="Rectangle-Copy" fill="#ECEDF2" x="536" y="370" width="80" height="50" rx="3"/>
        <path d="M566.6,400 C568.936,400 570.568,398.992 570.568,396.928 C570.568,395.488 569.688,394.656 568.44,394.416 L568.44,394.352 C569.416,394.032 569.976,393.104 569.976,392.064 C569.976,390.224 568.488,389.504 566.36,389.504 L563.24,389.504 L563.24,400 L566.6,400 Z M566.136,393.968 L564.584,393.968 L564.584,390.576 L566.184,390.576 C567.816,390.576 568.648,391.024 568.648,392.24 C568.648,393.312 567.912,393.968 566.136,393.968 Z M566.408,398.928 L564.584,398.928 L564.584,394.992 L566.408,394.992 C568.232,394.992 569.24,395.584 569.24,396.88 C569.24,398.288 568.2,398.928 566.408,398.928 Z M576.616,400.192 C577.96,400.192 578.984,399.648 579.832,398.672 L579.096,397.872 C578.424,398.608 577.672,399.008 576.664,399.008 C574.68,399.008 573.432,397.36 573.432,394.72 C573.432,392.112 574.744,390.496 576.712,390.496 C577.608,390.496 578.296,390.864 578.856,391.44 L579.592,390.608 C578.968,389.92 577.976,389.312 576.696,389.312 C574.024,389.312 572.04,391.376 572.04,394.752 C572.04,398.176 573.992,400.192 576.616,400.192 Z M584.472,400 C587.64,400 589.368,398.048 589.368,394.704 C589.368,391.376 587.64,389.504 584.408,389.504 L581.784,389.504 L581.784,400 L584.472,400 Z M584.312,398.896 L583.128,398.896 L583.128,390.608 L584.312,390.608 C586.76,390.608 587.976,392.064 587.976,394.704 C587.976,397.36 586.76,398.896 584.312,398.896 Z" id="BCD" fill="#333333" fill-rule="nonzero"/>
        <rect id="Rectangle-Copy" fill="#ECEDF2" x="316" y="150" width="50" height="50" rx="3"/>
        <path d="M341.096,180 C343.432,180 345.064,178.992 345.064,176.928 C345.064,175.488 344.184,174.656 342.936,174.416 L342.936,174.352 C343.912,174.032 344.472,173.104 344.472,172.064 C344.472,170.224 342.984,169.504 340.856,169.504 L337.736,169.504 L337.736,180 L341.096,180 Z M340.632,173.968 L339.08,173.968 L339.08,170.576 L340.68,170.576 C342.312,170.576 343.144,171.024 343.144,172.24 C343.144,173.312 342.408,173.968 340.632,173.968 Z M340.904,178.928 L339.08,178.928 L339.08,174.992 L340.904,174.992 C342.728,174.992 343.736,175.584 343.736,176.88 C343.736,178.288 342.696,178.928 340.904,178.928 Z" id="B" fill="#333333" fill-rule="nonzero"/>
        <rect id="Rectangle-Copy" fill="#ECEDF2" x="426" y="150" width="50" height="50" rx="3"/>
        <path d="M451.84,180.192 C453.184,180.192 454.208,179.648 455.056,178.672 L454.32,177.872 C453.648,178.608 452.896,179.008 451.888,179.008 C449.904,179.008 448.656,177.36 448.656,174.72 C448.656,172.112 449.968,170.496 451.936,170.496 C452.832,170.496 453.52,170.864 454.08,171.44 L454.816,170.608 C454.192,169.92 453.2,169.312 451.92,169.312 C449.248,169.312 447.264,171.376 447.264,174.752 C447.264,178.176 449.216,180.192 451.84,180.192 Z" id="C" fill="#333333" fill-rule="nonzero"/>
        <rect id="Rectangle-Copy" fill="#ECEDF2" x="536" y="150" width="50" height="50" rx="3"/>
        <path d="M560.2,180 C563.368,180 565.096,178.048 565.096,174.704 C565.096,171.376 563.368,169.504 560.136,169.504 L557.512,169.504 L557.512,180 L560.2,180 Z M560.04,178.896 L558.856,178.896 L558.856,170.608 L560.04,170.608 C562.488,170.608 563.704,172.064 563.704,174.704 C563.704,177.36 562.488,178.896 560.04,178.896 Z" id="D" fill="#333333" fill-rule="nonzero"/>
    </g>
</svg>
